<?xml version="1.0" standalone="no"?>
<!DOCTYPE svg PUBLIC "-//W3C//DTD SVG 20010904//EN"
 "http://www.w3.org/TR/2001/REC-SVG-20010904/DTD/svg10.dtd">
<svg version="1.0" xmlns="http://www.w3.org/2000/svg"
 width="16.000000pt" height="16.000000pt" viewBox="0 0 16.000000 16.000000"
 preserveAspectRatio="xMidYMid meet">
<metadata>
Created by potrace 1.11, written by Peter Selinger 2001-2013
</metadata>
<g transform="translate(0.000000,16.000000) scale(0.012500,-0.012500)"
fill="#000000" stroke="none">
<path d="M468 1250 c-46 -38 -95 -117 -124 -200 l-23 -65 -68 -23 c-37 -13
-71 -26 -75 -30 -8 -8 -16 -52 -23 -124 -3 -29 -7 -64 -10 -78 -4 -23 -8 -49
-20 -152 -3 -24 -8 -60 -11 -81 -10 -62 -13 -89 -19 -157 -3 -36 -8 -72 -10
-80 -2 -8 -7 -40 -10 -71 l-7 -56 49 -8 c26 -5 57 -9 68 -10 11 -2 41 -8 68
-14 26 -6 64 -14 85 -17 20 -3 57 -10 82 -15 25 -6 61 -12 80 -15 19 -2 50 -9
70 -14 19 -5 57 -12 84 -15 27 -3 52 -8 56 -10 20 -12 119 -16 160 -5 25 6 57
12 72 15 15 2 46 9 70 16 24 6 57 13 73 15 17 2 50 10 75 17 40 11 45 16 46
42 0 17 -5 53 -11 82 -7 29 -10 54 -8 56 2 2 -3 44 -12 93 -8 49 -18 111 -20
138 -3 27 -7 52 -10 56 -2 4 -7 31 -10 61 -7 67 -11 95 -25 184 -7 39 -13 84
-15 100 -3 31 -12 92 -20 135 -7 35 -19 43 -71 43 -42 0 -51 4 -91 43 -47 47
-54 50 -83 34 -15 -8 -20 -4 -30 20 -17 42 -65 89 -97 95 -16 4 -36 10 -45 16
-10 5 -48 9 -86 9 -60 0 -71 -3 -104 -30z m95 -38 c-22 -22 -48 -62 -61 -97
-34 -87 -35 -89 -80 -101 l-40 -12 21 51 c48 118 113 189 177 194 18 2 16 -3
-17 -35z m90 -79 c4 -40 2 -43 -27 -53 -52 -20 -86 -29 -86 -24 0 19 37 85 63
112 35 36 42 32 50 -35z m89 27 c18 -34 18 -34 -5 -46 -20 -11 -23 -10 -28 14
-18 77 -1 94 33 32z m-18 -328 c3 -10 7 -48 11 -87 5 -71 9 -109 21 -200 7
-57 12 -96 19 -175 2 -30 7 -73 11 -96 7 -52 -4 -57 -93 -44 -37 5 -70 7 -75
4 -4 -3 -8 -2 -8 3 -1 4 -3 31 -6 60 -2 29 -5 126 -7 217 -2 167 -8 189 -23
81 -4 -33 -8 -62 -9 -65 -1 -3 -5 -25 -9 -50 -5 -25 -10 -54 -12 -65 -2 -11
-7 -38 -10 -60 -11 -81 -21 -110 -34 -107 -8 2 -30 4 -51 4 -20 0 -41 3 -47 7
-6 4 -14 36 -16 71 -3 36 -8 97 -12 135 -3 39 -7 87 -8 107 -5 114 -28 -25
-48 -289 -1 -7 -6 -13 -12 -14 -17 -2 -70 2 -92 6 -10 2 -23 4 -27 4 -9 1 -5
45 13 151 6 36 13 76 15 90 2 14 8 52 14 85 6 33 13 74 15 90 12 92 19 115 35
115 9 0 46 3 82 6 l66 6 8 -48 c10 -66 15 -111 19 -157 5 -60 13 -53 31 30 10
43 19 83 20 88 1 6 6 29 10 52 l7 42 62 8 c105 14 135 13 140 -5z"/>
</g>
</svg>
